<?xml version="1.0" encoding="UTF-8" standalone="no"?>
<!-- Created with Inkscape (http://www.inkscape.org/) -->

<svg
   width="400"
   height="300"
   viewBox="0 0 105.83333 79.375"
   version="1.1"
   id="svg1"
   inkscape:version="1.4.2 (f4327f4, 2025-05-13)"
   sodipodi:docname="logo.svg"
   xmlns:inkscape="http://www.inkscape.org/namespaces/inkscape"
   xmlns:sodipodi="http://sodipodi.sourceforge.net/DTD/sodipodi-0.dtd"
   xmlns="http://www.w3.org/2000/svg"
   xmlns:svg="http://www.w3.org/2000/svg">
  <sodipodi:namedview
     id="namedview1"
     pagecolor="#ffffff"
     bordercolor="#000000"
     borderopacity="0.25"
     inkscape:showpageshadow="2"
     inkscape:pageopacity="0.0"
     inkscape:pagecheckerboard="0"
     inkscape:deskcolor="#d1d1d1"
     inkscape:document-units="mm"
     inkscape:zoom="1.2472578"
     inkscape:cx="303.06485"
     inkscape:cy="190.41773"
     inkscape:window-width="1366"
     inkscape:window-height="697"
     inkscape:window-x="2040"
     inkscape:window-y="264"
     inkscape:window-maximized="1"
     inkscape:current-layer="layer1" />
  <defs
     id="defs1" />
  <g
     inkscape:label="Capa 1"
     inkscape:groupmode="layer"
     id="layer1">
    <path
       style="fill:#c7aa64;fill-opacity:1;stroke-width:0.137796"
       d="m 38.442344,53.681505 c -0.0114,-0.017 -0.0564,-0.0307 -0.10007,-0.0303 -0.0437,2.5e-4 -0.14649,-0.0104 -0.2285,-0.0239 -0.082,-0.0134 -0.20855,-0.0323 -0.28121,-0.0419 -0.0726,-0.01 -0.19591,-0.0479 -0.27389,-0.0852 -0.078,-0.0373 -0.1579,-0.0655 -0.17759,-0.0627 -0.0739,0.0103 -0.24225,-0.058 -0.24225,-0.0984 0,-0.0231 -0.0304,-0.0312 -0.0676,-0.018 -0.0374,0.0133 -0.0871,-0.008 -0.11125,-0.0481 -0.024,-0.0396 -0.0578,-0.059 -0.0751,-0.043 -0.0173,0.016 -0.11133,-0.0176 -0.20899,-0.0745 -0.0977,-0.057 -0.18953,-0.10354 -0.20417,-0.10354 -0.0146,0 -0.12124,-0.0667 -0.2369,-0.14833 -0.11567,-0.0816 -0.23743,-0.14833 -0.27057,-0.14833 -0.0332,0 -0.11793,-0.0667 -0.18839,-0.14832 -0.0705,-0.0816 -0.15355,-0.14833 -0.18463,-0.14833 -0.066,0 -0.65463,-0.5332 -0.65463,-0.59298 0,-0.0223 -0.0929,-0.1263 -0.20646,-0.23118 -0.11355,-0.10489 -0.20646,-0.21925 -0.20646,-0.25413 0,-0.0349 -0.0619,-0.10571 -0.13764,-0.15741 -0.0757,-0.0517 -0.13764,-0.12474 -0.13764,-0.162308 0,-0.03757 -0.0181,-0.08643 -0.0403,-0.108574 -0.0477,-0.04772 -0.31691,-0.494761 -0.407,-0.675947 -0.0348,-0.06992 -0.0826,-0.155743 -0.10629,-0.190707 -0.0702,-0.103666 -0.14747,-0.269788 -0.16527,-0.355555 -0.009,-0.04405 -0.0617,-0.168007 -0.11672,-0.275464 -0.0551,-0.107455 -0.0975,-0.22398 -0.0942,-0.258943 0.003,-0.03496 -0.0447,-0.180313 -0.10645,-0.323001 -0.0618,-0.142687 -0.11931,-0.333394 -0.12784,-0.423791 -0.0207,-0.218954 -0.12314,-0.783811 -0.15669,-0.863615 -0.0767,-0.182438 -0.0677,-1.683808 0.0136,-2.267287 0.11676,-0.838146 0.3208,-1.562199 0.59894,-2.125363 0.0363,-0.07345 0.066,-0.143835 0.066,-0.156414 0,-0.09781 0.56116,-1.062938 0.69966,-1.203354 0.0442,-0.04476 0.0803,-0.100405 0.0803,-0.123643 0,-0.02323 0.0516,-0.08704 0.1147,-0.141784 0.0631,-0.05474 0.1147,-0.120303 0.1147,-0.145688 0,-0.06003 1.24743,-1.210445 1.31252,-1.210445 0.0273,0 0.087,-0.03814 0.13269,-0.08476 0.0457,-0.04661 0.10402,-0.08476 0.12966,-0.08476 0.0257,0 0.0845,-0.03168 0.13085,-0.0704 0.11387,-0.09519 0.59246,-0.337669 0.69116,-0.350174 0.0187,-0.0024 0.10711,-0.04221 0.19638,-0.08852 0.0893,-0.04632 0.20175,-0.08421 0.24996,-0.08421 0.0482,0 0.0992,-0.01729 0.11336,-0.03841 0.0141,-0.02112 0.13407,-0.0529 0.26652,-0.07062 0.39462,-0.05278 0.60785,-0.0878 0.60785,-0.09984 0,-0.009 0.66547,-0.05037 0.73407,-0.04562 0.0821,0.0057 0.59283,0.04813 0.73408,0.06101 0.0757,0.0069 0.17466,0.02701 0.21991,0.04468 0.0452,0.01767 0.095,0.0204 0.11047,0.0061 0.0155,-0.01433 0.0508,-0.0096 0.0783,0.01044 0.0536,0.03903 0.31973,0.123912 0.47528,0.151582 0.14821,0.02636 0.9563,0.397138 1.01995,0.46798 0.0315,0.03501 0.0824,0.06366 0.11329,0.06366 0.0308,0 0.0935,0.03814 0.13913,0.08476 0.0457,0.04662 0.10651,0.08476 0.1352,0.08476 0.0287,0 0.14334,0.08582 0.25478,0.190707 0.11144,0.104888 0.22491,0.190705 0.25214,0.190705 0.0666,0 0.48193,0.392422 0.48193,0.455335 0,0.0274 0.10323,0.139012 0.2294,0.248021 0.12617,0.109013 0.2294,0.233067 0.2294,0.275674 0,0.04261 0.0413,0.09788 0.0918,0.122829 0.0505,0.02495 0.0918,0.06625 0.0918,0.09178 0,0.02553 0.0723,0.139329 0.16058,0.252882 0.0883,0.113553 0.16057,0.228454 0.16057,0.255336 0,0.02688 0.0483,0.107888 0.10743,0.180013 0.0591,0.07213 0.1224,0.187188 0.14069,0.25569 0.0183,0.0685 0.0698,0.173392 0.11452,0.233088 0.0447,0.05969 0.10794,0.199118 0.14055,0.309832 0.0326,0.110716 0.0756,0.201301 0.0955,0.201301 0.0199,0 0.0687,0.131899 0.10841,0.293108 0.0397,0.161208 0.0957,0.347145 0.12435,0.413196 0.0287,0.06605 0.0753,0.233511 0.10356,0.372138 l 0.0514,0.252048 3.23451,0.01127 c 1.77899,0.0062 7.53918,0.01966 12.80043,0.02992 10.09835,0.01969 9.75442,0.01247 9.99029,0.209608 0.0568,0.04745 0.10323,0.06967 0.10323,0.04938 0,-0.02028 0.0723,0.0278 0.16058,0.106877 0.0883,0.07907 0.16058,0.165672 0.16058,0.192448 0,0.02678 0.0389,0.08121 0.0864,0.120947 0.15032,0.125664 0.21188,0.430892 0.21028,1.042738 -0.001,0.561473 -0.0354,0.764863 -0.16366,0.98153 -0.14701,0.248308 -0.32177,0.459361 -0.38036,0.459361 -0.0345,0 -0.0892,0.02955 -0.12163,0.06567 -0.14797,0.164694 -0.4644,0.247178 -0.97356,0.253776 -0.27154,0.0035 -0.50632,0.01804 -0.52173,0.03228 -0.0154,0.01423 -0.041,0.975501 -0.0568,2.13615 l -0.0288,2.110267 -1.85812,3.9e-4 -1.85813,3.8e-4 -0.0229,-1.18695 -0.0229,-1.186956 h -0.41292 -0.41291 l -0.0229,1.186616 -0.0229,1.18662 -0.77996,10e-4 c -0.42897,5.3e-4 -0.80657,-0.0167 -0.83911,-0.0384 -0.0448,-0.0298 -0.0578,-0.21996 -0.0534,-0.78502 l 0.006,-0.745658 h -0.40544 -0.40544 l -0.0126,0.740558 c -0.007,0.40731 -0.0311,0.75766 -0.0537,0.77856 -0.0437,0.0403 -1.17895,0.057 -1.22125,0.0179 -0.0137,-0.0126 -0.0233,-0.96771 -0.0213,-2.122381 0.002,-1.228 -0.0138,-2.109349 -0.0384,-2.123366 -0.0231,-0.01318 -2.47531,-0.03261 -5.44937,-0.04317 -9.52669,-0.03383 -10.52565,-0.03228 -10.58917,0.01643 -0.0325,0.02491 -0.0948,0.211948 -0.13842,0.41565 -0.0437,0.203701 -0.0956,0.389437 -0.11535,0.412747 -0.0198,0.02331 -0.0714,0.156803 -0.11477,0.296655 -0.0433,0.13985 -0.10592,0.301951 -0.1391,0.360222 -0.0332,0.05827 -0.16597,0.30619 -0.2951,0.55093 -0.12913,0.244739 -0.27517,0.502192 -0.32455,0.572118 -0.0494,0.06992 -0.10858,0.166062 -0.13156,0.213635 -0.023,0.0476 -0.0749,0.11189 -0.11538,0.14292 -0.0405,0.031 -0.0736,0.079 -0.0736,0.10649 0,0.0275 -0.0723,0.11476 -0.16058,0.19383 -0.0883,0.0791 -0.16058,0.16405 -0.16058,0.18886 0,0.0704 -0.89597,0.87062 -0.97473,0.87062 -0.0386,0 -0.11895,0.057 -0.17857,0.12675 -0.0596,0.0697 -0.14435,0.12693 -0.18829,0.12714 -0.0439,2.6e-4 -0.10569,0.0385 -0.13721,0.0851 -0.0315,0.0466 -0.0943,0.0848 -0.13947,0.0848 -0.0452,0 -0.0945,0.0297 -0.10958,0.066 -0.0151,0.0363 -0.0542,0.0565 -0.087,0.0449 -0.0327,-0.0116 -0.084,0.006 -0.11397,0.0395 -0.0299,0.0333 -0.0713,0.051 -0.0919,0.0392 -0.0206,-0.0118 -0.0501,-0.003 -0.0656,0.0205 -0.0294,0.0439 -0.29418,0.16955 -0.39911,0.1894 -0.0335,0.006 -0.0954,0.0254 -0.13762,0.0424 -0.0422,0.017 -0.10413,0.0347 -0.13764,0.0394 -0.0335,0.005 -0.0833,0.0215 -0.11067,0.0373 -0.0274,0.0158 -0.10994,0.0389 -0.18352,0.0513 -0.0736,0.0124 -0.18539,0.0325 -0.24848,0.0447 -0.0631,0.0121 -0.17663,0.0334 -0.25233,0.0473 -0.20469,0.0375 -1.35649,0.046 -1.38045,0.0102 z m 1.28869,-1.96362 c 0.0505,-0.006 0.14988,-0.0326 0.22091,-0.0589 0.071,-0.0264 0.14035,-0.0479 0.15402,-0.0479 0.0562,0 0.61004,-0.26021 0.63581,-0.29873 0.0153,-0.0229 0.0438,-0.0326 0.0633,-0.0215 0.0195,0.0111 0.1047,-0.0458 0.18935,-0.12644 0.0847,-0.0807 0.17637,-0.14668 0.20383,-0.14668 0.053,0 0.46734,-0.38369 0.57762,-0.534926 0.0361,-0.04947 0.14818,-0.193174 0.24911,-0.319343 0.24033,-0.300406 0.26655,-0.340683 0.45923,-0.705201 0.21483,-0.40644 0.40321,-0.901296 0.55177,-1.449451 0.16612,-0.612979 0.20916,-1.837523 0.0923,-2.626408 -0.0431,-0.29075 -0.0891,-0.544775 -0.1023,-0.564501 -0.0132,-0.01972 -0.0618,-0.172784 -0.1081,-0.340134 -0.1083,-0.391835 -0.26348,-0.771214 -0.39713,-0.970902 -0.0582,-0.08694 -0.1058,-0.185601 -0.1058,-0.21924 0,-0.03364 -0.0516,-0.117819 -0.1147,-0.187071 -0.0631,-0.06925 -0.1147,-0.15637 -0.1147,-0.193597 0,-0.03723 -0.0413,-0.09151 -0.0918,-0.120622 -0.0505,-0.02911 -0.0918,-0.07482 -0.0918,-0.101585 0,-0.02676 -0.11355,-0.156948 -0.25233,-0.289309 -0.13879,-0.13236 -0.25234,-0.256889 -0.25234,-0.276729 0,-0.01984 -0.0723,-0.07733 -0.16058,-0.127745 -0.0883,-0.05042 -0.16058,-0.107926 -0.16058,-0.127793 0,-0.09429 -0.61868,-0.421596 -1.12405,-0.594661 -0.37565,-0.128643 -1.11011,-0.160286 -1.59048,-0.06852 -0.36395,0.06952 -0.72644,0.194296 -0.72644,0.250046 0,0.01781 -0.0278,0.03238 -0.0618,0.03238 -0.0876,0 -0.33101,0.117234 -0.39781,0.191586 -0.031,0.03448 -0.0792,0.06269 -0.1072,0.06269 -0.0667,0 -0.90136,0.76821 -0.90136,0.829585 0,0.02598 -0.0413,0.08176 -0.0918,0.123949 -0.0505,0.04219 -0.0918,0.100018 -0.0918,0.128514 0,0.02849 -0.0315,0.07595 -0.07,0.10546 -0.077,0.05906 -0.4347,0.692831 -0.4347,0.770297 0,0.02669 -0.0271,0.07864 -0.0601,0.115438 -0.0331,0.0368 -0.0961,0.18133 -0.14011,0.321181 -0.044,0.139851 -0.0973,0.292417 -0.11835,0.339035 -0.0581,0.128292 -0.13056,0.401304 -0.16319,0.614496 -0.016,0.104889 -0.0397,0.247918 -0.0526,0.317844 -0.13033,0.70757 -0.1,1.788852 0.0704,2.510118 0.0846,0.358131 0.31829,1.066123 0.41639,1.261628 0.0234,0.04662 0.0857,0.170577 0.13839,0.275466 0.0527,0.104889 0.13613,0.247917 0.18534,0.317842 0.0492,0.06993 0.11132,0.165279 0.13802,0.211896 0.12864,0.224685 0.18968,0.301297 0.40069,0.502986 0.12513,0.119602 0.24019,0.251121 0.25568,0.292259 0.0155,0.04114 0.0752,0.09208 0.13259,0.113195 0.0574,0.02111 0.16466,0.09881 0.23831,0.172645 0.0736,0.07384 0.17688,0.151912 0.2294,0.173492 0.0525,0.0216 0.15742,0.0769 0.23313,0.12293 0.27966,0.17002 0.63971,0.30366 0.98641,0.36612 0.25672,0.0463 0.85381,0.0438 1.26169,-0.005 z M 26.652694,38.35026 c 0.0247,-0.03697 1.00248,-0.712201 3.35953,-2.320076 0.96696,-0.659618 3.07484,-2.099939 6.79835,-4.645331 0.57167,-0.39079 1.4936,-1.019499 2.04875,-1.39713 0.55514,-0.377632 1.44291,-0.983894 1.97282,-1.347252 1.695,-1.162253 2.60605,-1.784928 3.53286,-2.414607 0.49745,-0.337972 1.44737,-0.986375 2.11092,-1.440892 1.53544,-1.051745 2.19509,-1.502853 4.17132,-2.852612 0.88146,-0.602032 1.6533,-1.131403 1.71521,-1.176382 0.0619,-0.04498 0.13666,-0.08179 0.16612,-0.08179 0.0295,0 0.18668,0.09267 0.34938,0.205929 0.1627,0.11326 0.7397,0.510472 1.28223,0.882696 0.54252,0.372221 1.84321,1.26693 2.89042,1.988241 1.0472,0.721313 2.25137,1.549388 2.67593,1.840167 0.42456,0.290781 1.8936,1.301052 3.26453,2.245046 2.32632,1.601859 3.855,2.653178 6.26352,4.307603 0.54253,0.372662 1.67805,1.153919 2.52338,1.736124 0.84534,0.582204 1.82601,1.256701 2.17928,1.498885 2.31142,1.584572 3.87683,2.672871 3.87683,2.695229 0,0.04165 -0.39464,-0.173204 -2.75277,-1.498699 -1.22384,-0.687912 -2.56582,-1.441261 -2.98218,-1.674104 -0.73669,-0.411989 -1.20777,-0.676721 -2.29398,-1.289148 -0.29019,-0.163613 -1.11602,-0.626819 -1.83519,-1.029344 -0.71916,-0.402522 -1.48306,-0.832364 -1.69755,-0.955202 -0.33911,-0.194208 -1.21528,-0.685307 -5.02382,-2.815866 -0.42897,-0.239976 -0.95544,-0.535776 -1.16993,-0.657333 -1.1961,-0.677869 -5.02729,-2.828644 -6.84998,-3.845478 -0.37353,-0.208389 -0.70411,-0.370043 -0.73462,-0.35923 -0.0305,0.01081 -0.43716,0.234484 -0.90368,0.497048 -0.46652,0.262567 -1.19921,0.67206 -1.62818,0.909987 -0.42897,0.237927 -1.36836,0.762538 -2.08753,1.165803 -0.71916,0.403262 -1.68951,0.946858 -2.15634,1.207991 -0.46682,0.261132 -1.43718,0.804867 -2.15634,1.208299 -0.71916,0.403431 -2.1334,1.194838 -3.14276,1.75868 -2.69824,1.507283 -4.36965,2.44389 -4.7047,2.636362 -0.32262,0.185327 -0.76006,0.43019 -3.89773,2.181818 -1.14814,0.640956 -2.67593,1.495277 -3.39509,1.898491 -1.88819,1.058654 -1.83066,1.028215 -1.76901,0.936072 z m 23.05649,-0.607856 c -4.2e-4,-0.0058 -0.006,-0.597016 -0.0115,-1.313754 l -0.0108,-1.30316 h 1.43374 l 1.43374,10e-7 v 1.313753 1.313755 h -1.42227 c -0.78225,0 -1.42257,-0.0048 -1.42294,-0.01059 z m 3.90044,-1.30316 v -1.313753 h 1.42227 1.42227 v 1.313753 1.313755 h -1.42227 -1.42227 z m -3.90046,-2.054775 c -4.2e-4,-0.012 -0.001,-0.608226 -0.001,-1.324963 l -6.9e-4,-1.30316 h 1.41219 1.41219 v 1.313754 1.313754 l -1.4108,0.01121 c -0.77594,0.0061 -1.41111,0.0014 -1.41149,-0.01058 z m 3.90046,-1.314369 v -1.334943 h 1.42227 1.42227 v 1.334943 1.334944 h -1.42227 -1.42227 z m 7.40078,-8.381118 c -0.38333,-0.261872 -1.23307,-0.843519 -1.8883,-1.292553 l -1.19133,-0.816425 -0.031,-0.39138 c -0.017,-0.215261 -0.0241,-0.486736 -0.0157,-0.603278 l 0.0153,-0.211896 0.52762,-0.02621 c 0.29019,-0.01441 1.14994,-0.02872 1.91056,-0.03178 1.15798,-0.0047 1.38703,0.0042 1.40802,0.05476 0.0138,0.03318 0.0263,0.591001 0.0277,1.239591 0.002,0.648593 0.0161,1.489156 0.0326,1.867919 0.0251,0.575491 0.0194,0.688558 -0.0343,0.688024 -0.0353,-3.83e-4 -0.37789,-0.214896 -0.76123,-0.476765 z m -28.98504,-2.160701 c 0.0178,-0.07575 0.1846,-0.564623 0.37068,-1.086379 0.18609,-0.521757 0.33834,-0.963978 0.33834,-0.982717 0,-0.01874 -0.2942,-0.231605 -0.65378,-0.473036 -1.016,-0.68217 -1.31904,-0.896255 -1.31904,-0.93186 0,-0.01809 0.54195,-0.03317 1.20434,-0.03353 0.66239,-3.83e-4 1.22775,-0.01466 1.25636,-0.03178 0.0286,-0.01713 0.22085,-0.512668 0.4272,-1.10121 0.20634,-0.588541 0.39362,-1.070073 0.41617,-1.070073 0.0225,0 0.21308,0.491068 0.42341,1.091264 l 0.38242,1.091263 1.24839,0.01127 c 0.6866,0.0062 1.24838,0.02742 1.24838,0.04715 0,0.03713 -0.16401,0.152134 -1.27821,0.896269 -0.36236,0.242008 -0.66726,0.460293 -0.67756,0.485081 -0.0103,0.02479 0.15396,0.531019 0.36502,1.124954 0.21106,0.593934 0.36715,1.085971 0.34687,1.093413 -0.032,0.01174 -0.3742,-0.209234 -1.30244,-0.841025 -0.12617,-0.08587 -0.3466,-0.234747 -0.48984,-0.33083 l -0.26044,-0.174693 -0.33599,0.222807 c -0.1848,0.122546 -0.63909,0.427242 -1.00952,0.677105 -0.37043,0.249861 -0.68692,0.454295 -0.70331,0.454295 -0.0164,0 -0.0152,-0.06198 0.002,-0.137733 z m 37.66114,-0.268732 c 0.0162,-0.0678 0.19256,-0.571435 0.39185,-1.119185 l 0.36236,-0.995911 -0.14058,-0.105948 c -0.0773,-0.05827 -0.25846,-0.18223 -0.40253,-0.275464 -0.84838,-0.548994 -1.46598,-0.981557 -1.46732,-1.027694 -0.001,-0.04113 0.27982,-0.05297 1.25642,-0.05297 h 1.25795 l 0.0918,-0.26487 c 0.49866,-1.43932 0.67198,-1.896697 0.71387,-1.883801 0.0269,0.0083 0.2144,0.494656 0.41676,1.080857 l 0.36793,1.065822 1.26169,0.01159 c 0.8083,0.0074 1.25912,0.02682 1.25454,0.05397 -0.006,0.03812 -0.86668,0.630454 -1.67869,1.15589 -0.1702,0.110134 -0.30956,0.214738 -0.30969,0.232452 -1.3e-4,0.01771 0.17452,0.52218 0.3881,1.121038 0.21358,0.598858 0.3793,1.09717 0.36827,1.107361 -0.011,0.01018 -0.061,-0.008 -0.11096,-0.04037 -0.28444,-0.184309 -1.44302,-0.968034 -1.67213,-1.13112 -0.31862,-0.22679 -0.16652,-0.283137 -1.28128,0.474671 -0.44917,0.305343 -0.87993,0.591576 -0.95725,0.636066 l -0.14057,0.0809 z m -28.73966,-5.09578 c 0,-0.03205 0.6858,-1.97578 0.75012,-2.126005 0.0193,-0.04508 -0.11276,-0.156006 -0.4541,-0.381413 -0.86205,-0.569281 -1.51151,-1.020555 -1.52688,-1.060939 -0.009,-0.02367 0.48817,-0.04407 1.23875,-0.05083 l 1.2538,-0.01128 0.161,-0.444981 c 0.0886,-0.24474 0.26209,-0.735808 0.38563,-1.091264 0.12353,-0.355455 0.24035,-0.646283 0.25958,-0.646283 0.0452,0 0.11061,0.169274 0.49106,1.271376 l 0.31453,0.911152 1.24722,0.01127 c 0.77191,0.007 1.24721,0.02703 1.24721,0.05263 0,0.04102 -0.4035,0.323825 -1.33051,0.932536 -0.26496,0.173978 -0.51976,0.348201 -0.56624,0.387161 -0.0815,0.06834 -0.0713,0.107908 0.29058,1.123543 0.20629,0.578988 0.3854,1.076546 0.39801,1.105682 0.062,0.14322 -0.10157,0.04595 -1.33816,-0.79571 -0.12617,-0.08587 -0.34559,-0.23406 -0.48759,-0.329298 l -0.25819,-0.17316 -0.2356,0.156426 c -0.12958,0.08604 -0.58054,0.390042 -1.00213,0.675573 -0.74413,0.503962 -0.83809,0.558204 -0.83809,0.48381 z m 19.69637,-0.462623 c 0.0252,-0.04121 0.76595,-2.152281 0.76595,-2.182807 0,-0.02479 -0.13766,-0.119455 -1.27845,-0.879089 -0.40254,-0.26805 -0.7176,-0.501343 -0.70014,-0.518436 0.0175,-0.01709 0.58754,-0.03616 1.26682,-0.04238 l 1.23506,-0.01131 0.37626,-1.079311 c 0.20695,-0.593621 0.39433,-1.084871 0.4164,-1.091668 0.0425,-0.01307 0.1157,0.176974 0.54682,1.418749 l 0.26852,0.773421 h 1.25128 c 0.6882,0 1.25128,0.01475 1.25128,0.03279 0,0.01803 -0.11872,0.114661 -0.26381,0.214721 -0.59045,0.40719 -1.598,1.075801 -1.65167,1.096052 -0.0315,0.01191 -0.0572,0.05297 -0.057,0.09127 1.4e-4,0.03829 0.17165,0.551161 0.38102,1.139702 0.20938,0.588541 0.3617,1.070075 0.3385,1.070075 -0.0232,0 -0.16387,-0.08105 -0.3126,-0.180112 -0.37578,-0.250293 -1.20692,-0.810413 -1.50154,-1.011914 l -0.24552,-0.167915 -0.32798,0.226907 c -1.28104,0.886256 -1.84259,1.237784 -1.75919,1.101248 z m -9.86413,-2.373235 c 0.0332,-0.0543 0.76597,-2.157414 0.76571,-2.197561 -1.3e-4,-0.02087 -0.1161,-0.114223 -0.2577,-0.207457 -0.14161,-0.09323 -0.46879,-0.312545 -0.72706,-0.48736 -0.25828,-0.174814 -0.58576,-0.394125 -0.72772,-0.487359 -0.14196,-0.09323 -0.25856,-0.193356 -0.25911,-0.222491 -6.8e-4,-0.04111 0.27953,-0.05297 1.2513,-0.05297 h 1.25229 l 0.36162,-1.0488839 c 0.19889,-0.576887 0.38534,-1.073492 0.41433,-1.103567 0.0529,-0.05488 0.0574,-0.0434 0.68051,1.7392549 l 0.14442,0.413196 h 1.2479 c 0.68634,0 1.2583,0.01555 1.27102,0.03456 0.0127,0.019 -0.0944,0.115629 -0.23816,0.214718 -0.21463,0.147996 -1.34523,0.908639 -1.67976,1.13011 -0.0986,0.06525 -0.1074,0.0341 0.45656,1.608346 0.1336,0.372939 0.23526,0.685185 0.22591,0.69388 -0.0211,0.01959 -0.30378,-0.154289 -0.75508,-0.464428 -1.07319,-0.7375 -1.29595,-0.886327 -1.32662,-0.886327 -0.0186,0 -0.22842,0.132352 -0.46621,0.294112 -0.23778,0.161764 -0.54133,0.366773 -0.67454,0.455579 -0.13321,0.0888 -0.38604,0.261582 -0.56183,0.383951 -0.28666,0.199542 -0.45142,0.278535 -0.39778,0.190706 z"
       id="path7"
       sodipodi:nodetypes="ccsssssssssssssssssssssssssssscssssssssssssssssccsscssssssssssssssssssssssccsssssssssssssccccccccccsccccsssssssssssssssssssscssssssssssssssccsssssssssssssssssssssssssssssssssssssssssssssssssssssssssssssssssssssssssssssssssssssssssssscccccccsccccccccccccccccccccccccccccccsscsscssssscscsssscssssccssssssscsssccsscsscscssscsssssscssscscsssscssssccssssssscssccssssscssscsssscsssscsssssssscscssscssssssssssss" />
    <path
       style="fill:#19533f;stroke-width:0.135409"
       d="m 88.975214,70.537825 -0.0454,-0.18285 0.27228,-0.11885 c 0.76745,-0.335 1.21738,-0.96779 1.56841,-2.20582 0.14312,-0.50479 1.22597,-5.67573 1.1946,-5.70466 -0.0133,-0.0122 -0.53317,-0.073 -1.14965,-0.13429 -0.0228,-0.002 0.0233,-0.37503 0.0494,-0.39901 0.0111,-0.0103 0.58707,-0.16901 1.27987,-0.35276 0.69279,-0.18375 1.28059,-0.34082 1.30621,-0.34904 0.0256,-0.008 0.0928,0.0196 0.14935,0.0618 l 0.10275,0.0768 -0.61505,2.90434 c -0.68301,3.22531 -0.76341,3.55357 -1.01729,4.15349 -0.26563,0.62771 -0.57118,1.05635 -1.09871,1.54136 -0.5154,0.47385 -0.87382,0.67378 -1.45268,0.81034 -0.48441,0.11427 -0.49103,0.11304 -0.54408,-0.1008 z m -36.67297,-2.79742 c -1.08009,-0.1511 -1.86467,-0.49402 -2.43866,-1.06587 -0.46736,-0.46561 -0.74481,-0.95418 -0.93343,-1.64366 -0.13495,-0.49334 -0.14547,-1.67481 -0.0197,-2.217 0.24067,-1.03773 0.7342,-1.92166 1.47338,-2.63884 0.86463,-0.8389 2.0329,-1.37846 3.29334,-1.52101 0.51605,-0.0584 0.84535,-0.0541 1.35471,0.0175 0.5363,0.0754 0.89966,0.1831 1.43487,0.42523 0.39361,0.17807 0.41822,0.19669 0.3956,0.2993 -0.0347,0.15737 -0.29648,1.70662 -0.29648,1.75458 0,0.0233 -0.19884,0.0402 -0.47373,0.0402 h -0.47374 v -0.81361 -0.81361 l -0.15993,-0.0616 c -0.79477,-0.30629 -1.82336,-0.2526 -2.59224,0.13532 -1.17495,0.59279 -1.9661,1.77772 -2.25984,3.38459 -0.0729,0.39856 -0.0734,1.4024 -8.4e-4,1.72702 0.2,0.89577 0.5999,1.52492 1.21517,1.91182 0.67019,0.42143 1.50451,0.53535 2.3604,0.3223 l 0.28649,-0.0713 0.25936,-0.68606 c 0.14265,-0.37733 0.29161,-0.76565 0.33102,-0.86292 l 0.0717,-0.17687 h 0.46887 0.46887 l -0.0296,0.13525 c -0.0163,0.0744 -0.10321,0.50978 -0.19319,0.96755 l -0.1636,0.83229 -0.1779,0.0928 c -0.28605,0.14923 -0.8865,0.33578 -1.38478,0.43022 -0.44631,0.0846 -1.50036,0.14053 -1.81599,0.0964 z m -37.26711,-0.0668 c -0.21894,-0.0716 -0.367,-0.18677 -0.45167,-0.35134 -0.14803,-0.28774 -0.0778,-0.78067 0.42558,-2.98577 0.25032,-1.09662 0.4494,-1.99913 0.44239,-2.00559 -0.007,-0.007 -0.19489,-0.0314 -0.41754,-0.0553 -0.22265,-0.024 -0.48777,-0.0538 -0.58916,-0.0663 l -0.18435,-0.0227 0.0306,-0.18614 c 0.0168,-0.10238 0.0412,-0.19588 0.0541,-0.20778 0.0129,-0.0119 0.5998,-0.17133 1.30422,-0.35429 0.70442,-0.18295 1.30173,-0.33943 1.32735,-0.34772 0.0256,-0.008 0.0907,0.0179 0.14466,0.0582 l 0.0981,0.0733 -0.53621,2.32524 c -0.66562,2.88641 -0.65816,2.8479 -0.58045,2.99744 0.1599,0.30772 0.53635,0.18813 1.10902,-0.35234 l 0.37191,-0.35099 0.15822,0.11131 c 0.087,0.0612 0.15822,0.12211 0.15822,0.13531 0,0.0731 -0.50017,0.62772 -0.82222,0.91172 -0.55501,0.48946 -1.10207,0.72713 -1.65925,0.72086 -0.13648,-0.001 -0.30905,-0.0227 -0.3835,-0.047 z m 4.26393,-0.0129 c -0.195,-0.0812 -0.34752,-0.20989 -0.44221,-0.37322 -0.15294,-0.2638 -0.0968,-0.61352 0.63841,-3.97422 0.7185,-3.28447 0.8764,-4.05964 0.83476,-4.09805 -0.0133,-0.0123 -0.26374,-0.0498 -0.55647,-0.0833 -0.29273,-0.0335 -0.53636,-0.0661 -0.54139,-0.0726 -0.005,-0.006 10e-6,-0.0926 0.0112,-0.19154 0.0151,-0.13345 0.0453,-0.18974 0.11682,-0.21811 0.19938,-0.079 2.56411,-0.66772 2.63236,-0.65532 0.0392,0.007 0.0905,0.0412 0.1141,0.0757 0.0297,0.0435 -0.23011,1.2773 -0.84561,4.01583 -0.48866,2.17417 -0.89945,4.06102 -0.91287,4.193 -0.0194,0.19038 -0.008,0.25624 0.0529,0.31877 0.21882,0.22302 0.48868,0.12571 1.04377,-0.37639 l 0.41867,-0.3787 0.16092,0.11322 c 0.0918,0.0646 0.14783,0.13357 0.13045,0.1606 -0.40603,0.63154 -1.23002,1.32174 -1.79591,1.50431 -0.3188,0.10285 -0.85978,0.12321 -1.05994,0.0399 z m 4.15082,0 c -0.195,-0.0812 -0.34752,-0.20989 -0.44222,-0.37322 -0.15293,-0.2638 -0.0968,-0.61352 0.63842,-3.97422 0.7185,-3.28447 0.8764,-4.05964 0.83475,-4.09805 -0.0133,-0.0123 -0.26373,-0.0498 -0.55647,-0.0833 -0.29273,-0.0335 -0.53635,-0.0661 -0.54139,-0.0726 -0.005,-0.006 10e-6,-0.0926 0.0112,-0.19154 0.0151,-0.13345 0.0453,-0.18974 0.11683,-0.21811 0.19938,-0.079 2.56411,-0.66772 2.63236,-0.65532 0.0392,0.007 0.0905,0.0412 0.1141,0.0757 0.0297,0.0435 -0.23012,1.2773 -0.84562,4.01583 -0.48866,2.17417 -0.89944,4.06102 -0.91286,4.193 -0.0194,0.19038 -0.008,0.25624 0.0529,0.31877 0.21882,0.22302 0.48867,0.12571 1.04376,-0.37639 l 0.41867,-0.3787 0.16092,0.11322 c 0.0918,0.0646 0.14784,0.13357 0.13046,0.1606 -0.40603,0.63154 -1.23003,1.32174 -1.79592,1.50431 -0.3188,0.10285 -0.85977,0.12321 -1.05994,0.0399 z m 5.23331,0.0384 c -0.20545,-0.0348 -0.65164,-0.19331 -0.81204,-0.28855 -0.21971,-0.13045 -0.55325,-0.46163 -0.68975,-0.68487 -0.2036,-0.33294 -0.31011,-0.73042 -0.33602,-1.25391 -0.0285,-0.57623 0.0352,-1.0342 0.21644,-1.55509 0.6274,-1.80339 2.31963,-2.97664 4.0458,-2.80503 0.86917,0.0864 1.34073,0.5317 1.34221,1.26744 5.8e-4,0.30399 -0.015,0.36438 -0.16858,0.65097 -0.41692,0.77808 -1.54883,1.45428 -3.29909,1.97086 l -0.67107,0.19807 0.0241,0.21195 c 0.0387,0.3403 0.19594,0.66854 0.41862,0.87394 0.61396,0.56629 1.82874,0.41353 2.65993,-0.33449 l 0.29621,-0.26658 0.15506,0.10909 c 0.1812,0.12748 0.18056,0.12966 -0.1657,0.56424 -0.46058,0.57808 -1.12287,1.04853 -1.75283,1.2451 -0.28623,0.0893 -0.9893,0.14322 -1.2633,0.0969 z m -0.0119,-3.11284 c 1.14781,-0.36008 2.0529,-0.96358 2.38549,-1.59058 0.17153,-0.32339 0.18508,-0.78743 0.0297,-1.01785 -0.12959,-0.1922 -0.39561,-0.30686 -0.64137,-0.27646 -0.61573,0.0762 -1.42152,0.8266 -1.80869,1.68442 -0.21041,0.4662 -0.4165,1.30077 -0.3212,1.30077 0.02,0 0.18021,-0.0451 0.35605,-0.1003 z m 5.34004,3.08443 c -0.22449,-0.0661 -0.43322,-0.27874 -0.49471,-0.50398 -0.082,-0.30052 -0.004,-0.74631 0.539,-3.07721 0.27109,-1.1638 0.49289,-2.12354 0.49289,-2.13276 0,-0.009 -0.28561,-0.0168 -0.63469,-0.0168 -0.58316,0 -0.63282,-0.006 -0.61165,-0.0728 0.0127,-0.0401 0.0366,-0.16178 0.0533,-0.27049 0.0166,-0.10872 0.033,-0.19888 0.0364,-0.20035 0.003,-10e-4 0.31885,-0.0342 0.70103,-0.0728 l 0.69489,-0.0701 0.21056,-0.45776 c 0.11582,-0.25177 0.29769,-0.64972 0.40418,-0.88432 l 0.19361,-0.42655 h 0.49437 c 0.44949,0 0.4923,0.007 0.47147,0.0728 -0.0126,0.0401 -0.0961,0.40054 -0.18556,0.80108 -0.0895,0.40055 -0.17409,0.7704 -0.18805,0.8219 l -0.0254,0.0936 h 0.817 c 0.62337,0 0.81708,0.0123 0.81731,0.052 1.4e-4,0.0286 -0.0228,0.19247 -0.0511,0.36413 l -0.0514,0.31211 -0.8174,-0.0208 c -0.44957,-0.0114 -0.83033,-0.0114 -0.84615,0 -0.034,0.0246 -0.92452,3.95778 -0.96799,4.27519 -0.0224,0.16381 -0.0123,0.24244 0.041,0.31741 0.18871,0.26564 0.5769,0.13607 1.11461,-0.37206 0.20392,-0.1927 0.38358,-0.34986 0.39923,-0.34924 0.0156,6.3e-4 0.0965,0.0532 0.1796,0.11676 l 0.15114,0.11564 -0.27717,0.33928 c -0.79681,0.97535 -1.87099,1.47852 -2.66025,1.24612 z m 4.67458,-0.006 c -0.4242,-0.13956 -0.70463,-0.41864 -0.87621,-0.87194 -0.12522,-0.33085 -0.11155,-1.17972 0.0268,-1.66617 0.43945,-1.54471 1.76045,-3.06785 3.23145,-3.72594 0.88365,-0.39532 1.51774,-0.40923 2.01227,-0.0441 l 0.16245,0.11993 0.42408,-0.22558 c 0.23324,-0.12407 0.44438,-0.22511 0.46919,-0.22453 0.0248,5.4e-4 0.0825,0.0271 0.12809,0.0591 0.0793,0.0554 0.0569,0.16334 -0.5111,2.45981 -0.66834,2.70206 -0.69682,2.83657 -0.6333,2.99067 0.14529,0.35248 0.70519,0.14541 1.298,-0.48006 l 0.22103,-0.23321 0.10552,0.0788 c 0.058,0.0434 0.13689,0.095 0.17523,0.11479 0.10772,0.0556 -0.1939,0.44638 -0.71115,0.92133 -0.35466,0.32565 -0.50459,0.43071 -0.8173,0.57269 -0.6397,0.29044 -1.1749,0.28166 -1.50708,-0.0247 -0.21394,-0.19733 -0.27497,-0.37956 -0.27172,-0.81139 l 0.003,-0.36398 -0.38627,0.34627 c -0.46308,0.41513 -0.78433,0.64033 -1.16941,0.81974 -0.51789,0.2413 -1.0084,0.30865 -1.37336,0.18857 z m 1.71515,-1.08475 c 0.28938,-0.0793 0.67173,-0.31493 1.05834,-0.65233 l 0.30117,-0.26283 0.39018,-1.6854 c 0.21459,-0.92697 0.39376,-1.71125 0.39815,-1.74286 0.0128,-0.0923 -0.49189,-0.25018 -0.80414,-0.25151 -0.72423,-0.003 -1.48149,0.5654 -1.96366,1.47419 -0.41304,0.7785 -0.60719,1.6701 -0.50478,2.31818 0.0672,0.42544 0.20748,0.65698 0.47077,0.77718 0.22916,0.10463 0.34784,0.10923 0.65397,0.0254 z m 18.78164,1.07958 c -1.3052,-0.2607 -2.01157,-1.31874 -1.85121,-2.77284 0.17534,-1.58994 1.12504,-2.92393 2.49822,-3.50913 0.47219,-0.20122 0.86661,-0.27735 1.42839,-0.2757 1.1922,0.004 1.97897,0.49254 2.32692,1.44634 0.21792,0.59737 0.19761,1.45536 -0.0533,2.25414 -0.62693,1.99544 -2.50058,3.22639 -4.34898,2.85719 z m 1.20531,-0.58489 c 0.95312,-0.29791 1.68572,-1.72524 1.75957,-3.42817 0.0299,-0.68924 -0.031,-1.09479 -0.21733,-1.44779 -0.18722,-0.35466 -0.38994,-0.47927 -0.8158,-0.50147 -0.27786,-0.0145 -0.34278,-0.002 -0.60058,0.11502 -0.41498,0.18843 -0.73606,0.53017 -1.03914,1.10599 -0.72586,1.37906 -0.8049,3.30903 -0.16146,3.94235 0.27186,0.26758 0.65769,0.34443 1.07474,0.21407 z m 8.78823,0.57143 c -0.0993,-0.0423 -0.23123,-0.12767 -0.29327,-0.18981 -0.10374,-0.10391 -0.11257,-0.14362 -0.11006,-0.49446 0.002,-0.33408 0.0489,-0.55213 0.37443,-1.75477 0.61732,-2.28075 0.66398,-2.52983 0.52956,-2.82659 -0.18413,-0.40646 -0.97544,-0.22408 -1.95992,0.45171 l -0.44942,0.3085 -0.0754,0.30493 c -0.17917,0.72441 -0.57309,2.49289 -0.72698,3.26376 l -0.167,0.83647 -0.67297,0.048 c -0.67691,0.0482 -0.84853,0.0302 -0.84747,-0.089 2.8e-4,-0.0278 0.26355,-1.20128 0.58511,-2.60771 0.32156,-1.40643 0.57966,-2.56176 0.57355,-2.56739 -0.006,-0.006 -0.19327,-0.0299 -0.41591,-0.0538 -0.22265,-0.024 -0.48777,-0.0538 -0.58916,-0.0663 l -0.18435,-0.0227 0.0306,-0.18614 c 0.0168,-0.10238 0.0407,-0.19538 0.0529,-0.20667 0.0122,-0.0113 0.60929,-0.17778 1.32678,-0.36999 l 1.30452,-0.34946 0.1055,0.0941 0.1055,0.0941 -0.1354,0.6196 c -0.0745,0.34078 -0.12733,0.62711 -0.11747,0.63629 0.01,0.009 0.11599,-0.0679 0.23585,-0.17132 0.85292,-0.73587 1.92302,-1.24174 2.64127,-1.2486 0.80103,-0.008 1.14228,0.42946 1.0235,1.31107 -0.026,0.19298 -0.26023,1.15241 -0.52053,2.13208 -0.26029,0.97966 -0.47326,1.83438 -0.47326,1.89936 0,0.13327 0.13924,0.28461 0.26185,0.28461 0.18846,0 0.57811,-0.23514 0.91494,-0.55215 l 0.35102,-0.33035 0.16058,0.11297 0.16059,0.11298 -0.0785,0.12483 c -0.1447,0.22999 -0.57424,0.67292 -0.88915,0.91687 -0.67369,0.52189 -1.53177,0.74782 -2.03179,0.53495 z m 4.61429,0.0168 c -0.63036,-0.14794 -1.0493,-0.48746 -1.21233,-0.98251 -0.0922,-0.27989 -0.0924,-0.28891 -0.011,-0.44203 0.0457,-0.086 0.15415,-0.20035 0.241,-0.25417 0.13168,-0.0816 0.20111,-0.0951 0.41795,-0.0811 0.45664,0.0295 0.63443,0.21871 0.80418,0.85595 l 0.11868,0.44549 0.33513,-0.004 c 0.40269,-0.005 0.67134,-0.10227 0.90835,-0.32737 0.21339,-0.20266 0.27137,-0.37613 0.25086,-0.75061 -0.0151,-0.27613 -0.0341,-0.329 -0.19649,-0.5467 -0.0989,-0.13256 -0.34212,-0.36329 -0.54057,-0.51273 -1.0992,-0.82777 -1.42077,-1.24688 -1.45794,-1.90022 -0.0753,-1.32301 1.12844,-2.20638 2.79533,-2.05139 0.72522,0.0674 1.21189,0.38739 1.43834,0.94563 0.0844,0.20799 0.088,0.24892 0.0338,0.38022 -0.0837,0.20281 -0.31033,0.33573 -0.57246,0.33573 -0.42615,0 -0.6978,-0.25447 -0.93085,-0.87197 l -0.12848,-0.34043 -0.22801,0.026 c -0.1254,0.0143 -0.33899,0.0767 -0.47465,0.13867 -0.34671,0.15841 -0.50378,0.39799 -0.53261,0.81238 -0.0367,0.52768 0.14062,0.78924 0.93308,1.37623 0.66326,0.49129 1.0129,0.83151 1.16771,1.13625 0.11165,0.21976 0.12223,0.2839 0.12223,0.74084 0,0.48085 -0.006,0.51097 -0.14744,0.77648 -0.25905,0.48536 -0.78041,0.85549 -1.45438,1.03252 -0.44562,0.11705 -1.31152,0.14972 -1.67946,0.0634 z m 6.32671,0.0365 c -0.20544,-0.0348 -0.65163,-0.19331 -0.81205,-0.28856 -0.2197,-0.13045 -0.55324,-0.46163 -0.68974,-0.68487 -0.20359,-0.33294 -0.31011,-0.73042 -0.33602,-1.25391 -0.0285,-0.57622 0.0352,-1.03419 0.21644,-1.55508 0.6274,-1.80339 2.31963,-2.97665 4.0458,-2.80504 0.86917,0.0864 1.34073,0.53171 1.34222,1.26745 5.2e-4,0.30399 -0.015,0.36438 -0.16859,0.65096 -0.41692,0.77809 -1.54883,1.45429 -3.2991,1.97087 l -0.67106,0.19806 0.0241,0.21195 c 0.0387,0.3403 0.19594,0.66855 0.41862,0.87394 0.61396,0.5663 1.82874,0.41354 2.65993,-0.33449 l 0.29621,-0.26657 0.15506,0.10908 c 0.1812,0.12748 0.18055,0.12966 -0.1657,0.56425 -0.46059,0.57808 -1.12287,1.04852 -1.75284,1.2451 -0.28622,0.0893 -0.98929,0.14322 -1.26329,0.0969 z m -0.0119,-3.11284 c 1.14781,-0.36009 2.0529,-0.96358 2.38548,-1.59058 0.17154,-0.32339 0.18509,-0.78744 0.0297,-1.01786 -0.12959,-0.1922 -0.39561,-0.30686 -0.64137,-0.27646 -0.61572,0.0762 -1.42151,0.82661 -1.80868,1.68443 -0.21042,0.46619 -0.4165,1.30076 -0.32121,1.30076 0.02,0 0.18022,-0.0451 0.35605,-0.10029 z m 16.1189,3.11284 c -0.20545,-0.0348 -0.65164,-0.19331 -0.81205,-0.28856 -0.2197,-0.13045 -0.55324,-0.46163 -0.68975,-0.68487 -0.20359,-0.33294 -0.3101,-0.73042 -0.33601,-1.25391 -0.0285,-0.57622 0.0352,-1.03419 0.21644,-1.55508 0.6274,-1.80339 2.31962,-2.97665 4.0458,-2.80504 0.86916,0.0864 1.34073,0.53171 1.34221,1.26745 5.3e-4,0.30399 -0.015,0.36438 -0.16858,0.65096 -0.41692,0.77809 -1.54883,1.45429 -3.2991,1.97087 l -0.67106,0.19806 0.0241,0.21195 c 0.0387,0.3403 0.19594,0.66855 0.41862,0.87394 0.61395,0.5663 1.82874,0.41354 2.65993,-0.33449 l 0.29621,-0.26657 0.15506,0.10908 c 0.18119,0.12748 0.18055,0.12966 -0.16571,0.56425 -0.46058,0.57808 -1.12287,1.04852 -1.75283,1.2451 -0.28622,0.0893 -0.98929,0.14322 -1.26329,0.0969 z m -0.0119,-3.11284 c 1.14781,-0.36009 2.0529,-0.96358 2.38548,-1.59058 0.17154,-0.32339 0.18509,-0.78744 0.0297,-1.01786 -0.12959,-0.1922 -0.3956,-0.30686 -0.64136,-0.27646 -0.61573,0.0762 -1.42152,0.82661 -1.80869,1.68443 -0.21041,0.46619 -0.41649,1.30076 -0.3212,1.30076 0.02,0 0.18021,-0.0451 0.35605,-0.10029 z m -88.8005198,-0.9921 c -0.39426,-2.22587 -0.71862,-4.05045 -0.7208,-4.05462 -0.002,-0.004 -0.22192,-0.031 -0.48829,-0.0595 -0.26637,-0.0286 -0.48343,-0.0626 -0.48234,-0.0756 10e-4,-0.013 0.0273,-0.13608 0.0582,-0.27341 l 0.0563,-0.24969 2.02218,-0.0108 2.02218,-0.0108 -0.0254,0.0941 c -0.014,0.0517 -0.0388,0.17169 -0.0551,0.26656 l -0.0297,0.17249 -0.3221,0.044 c -0.17715,0.0242 -0.45971,0.0569 -0.6279,0.0727 -0.1682,0.0158 -0.31663,0.0448 -0.32984,0.0645 -0.0266,0.0398 0.86995,5.88229 0.92,5.995 0.022,0.0495 0.54385,-0.84072 1.7316298,-2.95397 0.93509,-1.66367 1.69441,-3.03015 1.68739,-3.03662 -0.007,-0.007 -0.25133,-0.0477 -0.5429,-0.0915 -0.29158,-0.0439 -0.53649,-0.0857 -0.54425,-0.0929 -0.008,-0.007 0.0103,-0.12553 0.0402,-0.26286 l 0.0543,-0.24969 1.5492,-0.011 1.5492,-0.0109 -0.0295,0.1358 c -0.0162,0.0747 -0.0411,0.20236 -0.0552,0.28372 l -0.0257,0.14792 -0.59305,0.081 -0.59305,0.081 -2.30139,4.02594 -2.3013998,4.02593 -0.45296,2.6e-4 -0.45295,2.5e-4 z m 77.3790298,3.99385 c -0.0839,-0.058 -0.0694,-0.13402 0.50607,-2.6541 0.32582,-1.42694 0.58744,-2.599 0.58138,-2.60459 -0.006,-0.006 -0.19319,-0.0298 -0.41584,-0.0538 -0.22265,-0.024 -0.48777,-0.0538 -0.58916,-0.0663 l -0.18435,-0.0227 0.0306,-0.18614 c 0.0169,-0.10238 0.0416,-0.19632 0.0551,-0.20875 0.0135,-0.0124 0.58008,-0.17758 1.2591,-0.36699 1.16094,-0.32383 1.24056,-0.34046 1.33469,-0.2787 0.0551,0.0361 0.10047,0.10313 0.10093,0.14891 4.2e-4,0.0458 -0.0693,0.46621 -0.15495,0.9343 -0.0857,0.46808 -0.14878,0.85751 -0.14023,0.86539 0.008,0.008 0.0816,-0.0942 0.1624,-0.22684 0.48074,-0.7895 1.13097,-1.46291 1.60641,-1.66368 0.48774,-0.20596 1.04754,-0.11753 1.36461,0.21556 0.13903,0.14605 0.14938,0.17541 0.12348,0.35026 -0.0367,0.24743 -0.23365,0.53616 -0.43244,0.63381 -0.19076,0.0937 -0.52974,0.10049 -0.75146,0.0151 -0.0887,-0.0342 -0.26413,-0.13178 -0.38978,-0.21685 l -0.22844,-0.15468 -0.31239,0.31048 c -0.34729,0.34519 -0.86038,1.03477 -1.18327,1.5903 -0.20322,0.34965 -0.22223,0.4132 -0.47309,1.58136 -0.14376,0.6694 -0.29739,1.39732 -0.34141,1.6176 l -0.08,0.40055 -0.43269,0.0272 c -0.23797,0.015 -0.54435,0.0375 -0.68083,0.0501 -0.17726,0.0163 -0.27281,0.006 -0.33447,-0.0368 z m -68.3589,-8.13788 c -0.31013,-0.13386 -0.51598,-0.43637 -0.51674,-0.75938 -4.1e-4,-0.19083 0.13715,-0.48556 0.29802,-0.63834 0.2067,-0.19631 0.38324,-0.27653 0.66556,-0.30244 0.19479,-0.0179 0.27087,-0.002 0.47663,0.0977 0.34166,0.16602 0.46765,0.3843 0.44531,0.77145 -0.0189,0.3269 -0.16103,0.55268 -0.47687,0.75743 -0.24711,0.16019 -0.61998,0.19095 -0.89191,0.0736 z m 76.51938,0 c -0.31012,-0.13386 -0.51597,-0.43637 -0.51673,-0.75938 -4.2e-4,-0.19083 0.13714,-0.48556 0.29801,-0.63834 0.20671,-0.19631 0.38325,-0.27653 0.66556,-0.30244 0.19479,-0.0179 0.27088,-0.002 0.47663,0.0977 0.34166,0.16602 0.46766,0.3843 0.44531,0.77145 -0.0189,0.3269 -0.16103,0.55268 -0.47687,0.75743 -0.24711,0.16019 -0.61998,0.19095 -0.89191,0.0736 z"
       id="path2" />
  </g>
</svg>
